<svg width="1334" height="375" viewBox="0 0 1334 375" fill="none" xmlns="http://www.w3.org/2000/svg">
  <mask id="mask0_691_4474" style="mask-type:luminance" maskUnits="userSpaceOnUse" x="-275" y="0"
    width="1884" height="293">
    <path d="M-275 0H1609V293H-275V0Z" fill="white" />
  </mask>
  <g mask="url(#mask0_691_4474)">
    <path fill-rule="evenodd" clip-rule="evenodd"
      d="M1608.91 145.32C1608.9 146.42 1608.9 147.712 1609 149.255V293H-274.5L-275 53.5C-270.336 53.8 -266.383 55.689 -262.517 57.537C-255.295 60.988 -248.375 64.297 -237.681 56.832C-234.44 54.632 -231.868 50.988 -229.26 47.294C-224.595 40.687 -219.816 33.918 -210.889 34.949C-197.754 31.602 -181.285 30.953 -183.023 46.47C-180.251 48.414 -176.907 49.392 -173.555 50.373C-169.621 51.523 -165.675 52.678 -162.627 55.403C-158.43 59.23 -154.511 63.3503 -150.898 67.733C-147.793 71.63 -150.454 75.926 -152.974 79.996C-155.442 83.98 -157.776 87.748 -154.433 90.714C-147.864 94.056 -144.61 95.685 -143.457 98.256C-142.197 101.065 -143.445 105 -145.616 113.526C-133.314 107.938 -124.813 111.572 -115.112 115.72C-113.798 116.282 -112.462 116.853 -111.092 117.412C-109.844 115.514 -110.43 113.075 -111.04 110.536C-112.109 106.084 -113.252 101.326 -104.715 98.648C-101.574 97.668 -98.913 96.321 -96.198 94.946C-92.681 93.166 -89.072 91.338 -84.209 90.204C-82.299 89.728 -80.833 89.025 -79.453 88.364C-76.668 87.03 -74.236 85.864 -69.227 87.067C-62.363 88.709 -62.889 93.805 -63.423 98.977C-63.831 102.932 -64.244 106.932 -61.364 109.469C-53.802 101.475 -44.292 95.77 -36.379 101.475C-33.851 103.207 -30.456 103.039 -26.919 102.864C-24.008 102.72 -21.001 102.571 -18.303 103.474C-16.289 104.175 -15.446 106.662 -14.639 109.041C-14.134 110.529 -13.644 111.974 -12.891 112.916C-6.18298 98.758 10.949 106.481 13.771 114.105C24.265 106.301 41.547 99.117 52.402 102.355C54.915 103.076 56.625 104.748 58.146 106.236C60.839 108.87 62.942 110.925 67.857 106.112C71.068 102.956 74.296 102.405 77.526 101.853C80.177 101.401 82.828 100.949 85.471 99.057C96.918 90.93 103.835 92.286 114.499 94.377L115.235 94.521L115.78 94.627C125.585 96.545 144.824 100.307 155.202 95.031C158.837 93.172 161.847 90.521 164.852 87.873C168.422 84.728 171.985 81.589 176.582 79.793C178.068 79.213 179.608 79.413 181.171 79.616C184.779 80.086 188.511 80.571 192 71.5C193.533 69.55 198.395 68.414 204.812 67.89C207.765 65.452 211.708 63.45 215.531 61.626C216.267 61.26 217.007 60.886 217.75 60.509C226.261 56.199 235.244 51.65 245.338 57.302C255.58 62.843 260.172 59.72 264.824 56.555C268.996 53.718 273.216 50.847 281.603 54.159C285.259 55.599 289.087 56.525 292.895 57.446C297.847 58.644 302.767 59.834 307.234 62.136C317.545 67.422 336.661 63.653 346.402 61.733L346.944 61.626L347.675 61.482C358.27 59.387 365.143 58.029 376.516 66.17C379.142 68.065 381.776 68.518 384.41 68.971C387.619 69.523 390.827 70.075 394.017 73.237C398.9 78.059 400.989 75.999 403.665 73.361C405.177 71.871 406.876 70.196 409.372 69.473C420.157 66.23 437.328 73.427 447.755 81.243C450.558 73.607 467.58 65.87 474.245 80.053C474.993 79.109 475.48 77.661 475.981 76.171C476.783 73.787 477.621 71.296 479.622 70.594C482.303 69.69 485.29 69.839 488.183 69.984C491.696 70.159 495.07 70.327 497.582 68.592C505.444 62.877 514.892 68.592 522.405 76.6C525.267 74.058 524.857 70.052 524.451 66.09C523.921 60.909 523.398 55.804 530.218 54.16C535.195 52.955 537.611 54.122 540.378 55.459C541.749 56.121 543.206 56.825 545.104 57.302C549.935 58.438 553.521 60.268 557.016 62.052C559.713 63.429 562.357 64.779 565.478 65.76C573.96 68.443 572.824 73.209 571.762 77.668C571.156 80.212 570.574 82.655 571.813 84.557C573.175 83.997 574.502 83.425 575.807 82.862C585.446 78.707 593.892 75.066 606.115 80.663C603.954 72.107 602.714 68.167 603.978 65.351C605.13 62.785 608.363 61.153 614.875 57.813C618.197 54.842 615.878 51.067 613.426 47.076C610.922 42.999 608.278 38.696 611.363 34.792C614.95 30.4046 618.845 26.2776 623.017 22.442C626.045 19.712 629.966 18.555 633.875 17.402C637.205 16.42 640.527 15.441 643.281 13.493C641.555 -2.05001 657.918 -1.40001 670.968 1.95299C679.837 0.918988 684.586 7.69999 689.22 14.318C691.812 18.019 694.367 21.668 697.588 23.872C708.427 31.501 717.32 27.812 725.97 24.224C730.33 22.414 734.63 20.628 739.09 20.339C750.24 18.858 758.31 21.53 767.8 30.939C774.02 37.109 778.94 35.238 784.31 33.194C787.37 32.029 790.58 30.807 794.27 30.989C804.19 31.449 814.77 35.052 818.76 45.692C821.78 52.345 826.35 54.189 831.36 56.216C835.01 57.691 838.9 59.261 842.61 62.847C850.04 70.034 857.53 69.969 865.26 69.903C869.79 69.864 874.41 69.824 879.15 71.245C887.92 73.877 916.64 84.657 921.97 92.073C923.91 94.866 923.94 100.301 922.86 106.086C925.78 106.596 928.51 106.817 930.68 105.766C939.85 101.222 951.82 102.773 962.8 108.929C973.27 114.594 980.64 113.297 987.99 112.003C994.26 110.899 1000.52 109.797 1008.69 113.022C1013.25 114.825 1016.79 117.965 1020.33 121.111C1023.32 123.765 1026.32 126.422 1029.93 128.286C1040.23 133.568 1059.33 129.806 1069.09 127.885L1069.64 127.775L1070.34 127.638C1080.94 125.54 1087.83 124.178 1099.22 132.329C1101.84 134.218 1104.47 134.67 1107.1 135.121C1110.31 135.672 1113.52 136.222 1116.71 139.386C1117.38 140.065 1118.12 140.681 1118.91 141.227L1123.96 141.608C1124.76 141.086 1125.52 140.332 1126.34 139.525C1127.86 138.025 1129.56 136.338 1132.07 135.602C1141.65 132.67 1156.29 138.075 1166.73 144.791L1171.65 145.161C1176.46 138.425 1190.95 133.35 1196.93 146.162C1197.69 145.233 1198.17 143.78 1198.68 142.281C1199.48 139.901 1200.32 137.403 1202.31 136.703C1204.99 135.8 1207.98 135.949 1210.87 136.093C1214.39 136.268 1217.76 136.436 1220.27 134.702C1228.13 128.986 1237.58 134.702 1245.09 142.709C1247.95 140.169 1247.54 136.164 1247.14 132.205C1246.61 127.021 1246.09 121.914 1252.91 120.269C1257.88 119.064 1260.3 120.232 1263.07 121.569C1264.44 122.231 1265.89 122.934 1267.78 123.411C1272.63 124.548 1276.21 126.381 1279.71 128.169C1282.41 129.545 1285.05 130.895 1288.17 131.879C1296.64 134.557 1295.51 139.321 1294.45 143.781C1293.84 146.323 1293.26 148.765 1294.49 150.666C1295.85 150.106 1297.18 149.535 1298.48 148.972C1308.12 144.817 1316.57 141.175 1328.79 146.782C1326.63 138.226 1325.39 134.286 1326.66 131.47C1327.81 128.904 1331.04 127.273 1337.55 123.932C1340.88 120.962 1338.56 117.188 1336.11 113.198C1333.6 109.12 1330.96 104.816 1334.05 100.911C1337.64 96.523 1341.53 92.395 1345.71 88.561C1348.73 85.831 1352.65 84.674 1356.56 83.521C1359.89 82.539 1363.21 81.559 1365.96 79.612C1364.23 64.068 1380.61 64.719 1393.66 68.072C1402.53 67.045 1407.28 73.824 1411.91 80.44C1414.5 84.14 1417.06 87.788 1420.28 89.992C1431.11 97.621 1440.01 93.93 1448.65 90.342C1453.02 88.532 1457.32 86.747 1461.77 86.458C1472.93 84.978 1480.99 87.65 1490.49 97.058C1496.71 103.228 1501.63 101.357 1507 99.313C1510.06 98.147 1513.27 96.926 1516.95 97.108C1526.86 97.568 1537.46 101.182 1541.45 111.811C1544.46 118.463 1549.03 120.308 1554.05 122.335C1557.7 123.809 1561.59 125.38 1565.29 128.966C1572.72 136.157 1580.22 136.093 1587.96 136.026C1592.49 135.988 1597.1 135.948 1601.82 137.364C1608.91 139.49 1608.91 140.71 1608.91 145.32Z"
      fill="#22C55E" />
    <path
      d="M-56.1882 173.531C-56.2831 173.062 -56.4135 172.6 -56.5782 172.151C-57.6382 169.071 -59.9182 167.551 -63.0682 167.151C-64.5282 166.981 -65.9882 167.081 -67.4482 167.031C-67.4482 167.031 -68.4482 166.961 -68.4482 167.031C-69.9529 167.014 -71.4499 167.247 -72.8782 167.721C-73.9376 168.039 -74.9042 168.609 -75.6949 169.382C-76.4857 170.155 -77.077 171.109 -77.4182 172.161C-77.4182 172.251 -77.8382 173.851 -77.9282 174.331C-78.0242 174.92 -78.0242 175.522 -77.9282 176.111C-77.7392 178.158 -77.1694 180.153 -76.2482 181.991C-76.0232 182.503 -75.6802 182.956 -75.2482 183.311C-74.3513 184.396 -73.2633 185.308 -72.0382 186.001C-71.6302 186.243 -71.1892 186.422 -70.7282 186.531C-70.1573 186.81 -69.5468 186.999 -68.9182 187.091C-68.0263 186.811 -67.07 186.811 -66.1782 187.091C-65.3803 187.421 -64.4918 187.46 -63.6682 187.201C-62.56 186.861 -61.5372 186.288 -60.6682 185.521C-58.5963 183.806 -57.0303 181.559 -56.1382 179.021C-55.7601 177.209 -55.7772 175.336 -56.1882 173.531ZM225.812 184.531C225.717 184.062 225.587 183.6 225.422 183.151C224.362 180.071 222.082 178.551 218.932 178.151C217.472 177.981 216.012 178.081 214.552 178.031C214.552 178.031 213.552 177.961 213.552 178.031C212.047 178.014 210.55 178.247 209.122 178.721C208.062 179.039 207.096 179.609 206.305 180.382C205.514 181.155 204.923 182.109 204.582 183.161C204.582 183.251 204.162 184.851 204.072 185.331C203.976 185.92 203.976 186.522 204.072 187.111C204.261 189.158 204.831 191.153 205.752 192.991C205.977 193.503 206.32 193.956 206.752 194.311C207.649 195.396 208.737 196.308 209.962 197.001C210.37 197.243 210.811 197.422 211.272 197.531C211.843 197.81 212.453 197.999 213.082 198.091C213.974 197.811 214.93 197.811 215.822 198.091C216.62 198.421 217.508 198.46 218.332 198.201C219.44 197.861 220.463 197.288 221.332 196.521C223.404 194.806 224.97 192.559 225.862 190.021C226.24 188.209 226.223 186.336 225.812 184.531ZM354.756 95.521C354.662 95.0548 354.532 94.5967 354.366 94.151C353.306 91.061 351.026 89.541 347.876 89.151C346.416 88.981 344.956 89.081 343.496 89.031C343.496 89.031 342.496 88.961 342.546 89.031C341.042 89.019 339.545 89.252 338.116 89.721C337.057 90.04 336.091 90.6104 335.301 91.3836C334.51 92.1567 333.918 93.1096 333.576 94.161C333.576 94.251 333.156 95.851 333.076 96.331C332.975 96.9234 332.975 97.5286 333.076 98.121C333.266 100.165 333.835 102.156 334.756 103.991C334.981 104.503 335.323 104.956 335.756 105.311C336.653 106.396 337.741 107.308 338.966 108.001C339.373 108.243 339.815 108.422 340.276 108.531C340.849 108.812 341.464 109.001 342.096 109.091C342.984 108.811 343.937 108.811 344.826 109.091C345.624 109.421 346.512 109.46 347.336 109.201C348.442 108.861 349.464 108.292 350.336 107.531C352.406 105.81 353.971 103.56 354.866 101.021C355.225 99.201 355.187 97.325 354.756 95.521ZM700.812 65.521C700.711 65.0565 700.581 64.5989 700.422 64.151C699.362 61.061 697.082 59.541 693.932 59.151C692.472 58.981 691.012 59.081 689.552 59.031C689.552 59.031 688.552 58.961 688.552 59.031C687.047 59.0176 685.55 59.2542 684.122 59.731C683.061 60.0468 682.094 60.6161 681.303 61.3897C680.512 62.1633 679.921 63.1179 679.582 64.171C679.582 64.261 679.162 65.851 679.072 66.331C678.976 66.9238 678.976 67.5282 679.072 68.121C679.258 70.1659 679.828 72.1573 680.752 73.991C680.977 74.5031 681.32 74.9552 681.752 75.311C682.644 76.4011 683.732 77.3137 684.962 78.001C685.369 78.246 685.811 78.428 686.272 78.541C686.845 78.8123 687.455 78.9976 688.082 79.091C688.974 78.8107 689.93 78.8107 690.822 79.091C691.621 79.4185 692.509 79.4539 693.332 79.191C694.44 78.855 695.463 78.2855 696.332 77.521C698.404 75.8016 699.97 73.5514 700.862 71.011C701.239 69.199 701.222 67.326 700.812 65.521ZM890.81 194.521C890.71 194.057 890.58 193.599 890.42 193.151C889.36 190.061 887.08 188.541 883.93 188.151C882.47 187.981 881.01 188.081 879.55 188.031C879.55 188.031 878.55 187.961 878.55 188.031C877.05 188.018 875.55 188.254 874.12 188.731C873.059 189.047 872.092 189.616 871.301 190.39C870.51 191.163 869.919 192.118 869.58 193.171C869.58 193.261 869.16 194.851 869.07 195.331C868.98 195.924 868.98 196.528 869.07 197.121C869.26 199.165 869.829 201.156 870.75 202.991C870.98 203.503 871.32 203.956 871.75 204.311C872.64 205.401 873.73 206.314 874.96 207.001C875.37 207.246 875.81 207.428 876.27 207.541C876.844 207.81 877.453 207.996 878.08 208.091C878.97 207.811 879.93 207.811 880.82 208.091C881.62 208.419 882.51 208.454 883.33 208.191C884.438 207.855 885.461 207.286 886.33 206.521C888.402 204.802 889.968 202.551 890.86 200.011C891.24 198.199 891.22 196.326 890.81 194.521ZM1142.81 174.521C1142.71 174.055 1142.58 173.597 1142.42 173.151C1141.36 170.061 1139.08 168.541 1135.93 168.151C1134.47 167.981 1133.01 168.081 1131.55 168.031C1131.55 168.031 1130.55 167.961 1130.55 168.031C1129.04 168.019 1127.55 168.252 1126.12 168.721C1125.06 169.038 1124.09 169.607 1123.3 170.381C1122.51 171.154 1121.92 172.108 1121.58 173.161C1121.58 173.261 1121.16 174.851 1121.08 175.331C1120.97 175.923 1120.97 176.529 1121.08 177.121C1121.27 179.165 1121.84 181.156 1122.76 182.991C1122.98 183.503 1123.32 183.956 1123.76 184.311C1124.65 185.401 1125.74 186.314 1126.97 187.001C1127.37 187.246 1127.81 187.428 1128.28 187.541C1128.85 187.814 1129.47 187.999 1130.1 188.091C1130.99 187.816 1131.94 187.816 1132.83 188.091C1133.62 188.426 1134.51 188.465 1135.34 188.201C1136.44 187.861 1137.46 187.292 1138.34 186.531C1140.41 184.809 1141.97 182.56 1142.87 180.021C1143.24 178.205 1143.22 176.329 1142.81 174.521ZM1404.81 126.521C1404.71 126.055 1404.58 125.597 1404.42 125.151C1403.36 122.061 1401.08 120.541 1397.93 120.151C1396.47 119.981 1395.01 120.081 1393.55 120.031C1393.55 120.031 1392.55 119.961 1392.55 120.031C1391.04 120.019 1389.55 120.252 1388.12 120.721C1387.06 121.038 1386.09 121.607 1385.3 122.381C1384.51 123.154 1383.92 124.108 1383.58 125.161C1383.58 125.261 1383.16 126.851 1383.08 127.331C1382.97 127.923 1382.97 128.529 1383.08 129.121C1383.27 131.165 1383.84 133.156 1384.76 134.991C1384.98 135.503 1385.32 135.956 1385.76 136.311C1386.65 137.401 1387.74 138.314 1388.97 139.001C1389.37 139.246 1389.81 139.428 1390.28 139.541C1390.85 139.814 1391.47 139.999 1392.1 140.091C1392.99 139.816 1393.94 139.816 1394.83 140.091C1395.62 140.426 1396.51 140.465 1397.34 140.201C1398.44 139.861 1399.46 139.292 1400.34 138.531C1402.41 136.809 1403.97 134.56 1404.87 132.021C1405.24 130.205 1405.22 128.329 1404.81 126.521ZM1529.77 235.521C1529.66 235.058 1529.53 234.6 1529.38 234.151C1528.94 232.75 1528.08 231.519 1526.91 230.627C1525.75 229.733 1524.34 229.217 1522.88 229.151C1521.43 228.991 1519.96 229.081 1518.5 229.031C1518.5 229.031 1517.5 228.961 1517.56 229.031C1516.05 229.023 1514.55 229.259 1513.12 229.731C1512.06 230.047 1511.09 230.616 1510.3 231.39C1509.51 232.161 1508.92 233.117 1508.58 234.171C1508.58 234.261 1508.16 235.851 1508.08 236.341C1507.97 236.929 1507.97 237.533 1508.08 238.121C1508.26 240.166 1508.82 242.157 1509.75 243.991C1509.97 244.505 1510.32 244.96 1510.75 245.321C1511.64 246.411 1512.74 247.321 1513.97 248.001C1514.37 248.246 1514.81 248.428 1515.27 248.541C1515.84 248.813 1516.46 249.001 1517.09 249.101C1517.97 248.821 1518.93 248.821 1519.82 249.101C1520.62 249.432 1521.51 249.471 1522.34 249.211C1523.45 248.87 1524.47 248.298 1525.34 247.531C1527.41 245.814 1528.98 243.568 1529.88 241.031C1530.23 239.208 1530.2 237.329 1529.77 235.521ZM-202.234 95.521C-202.34 95.058 -202.47 94.601 -202.624 94.151C-203.064 92.7515 -203.923 91.5211 -205.086 90.6267C-206.249 89.7323 -207.659 89.2171 -209.124 89.151C-210.574 88.991 -212.044 89.081 -213.504 89.031C-213.504 89.031 -214.504 88.961 -214.444 89.031C-215.952 89.0225 -217.452 89.2589 -218.884 89.731C-219.945 90.0466 -220.912 90.6158 -221.703 91.3894C-222.494 92.163 -223.085 93.1178 -223.424 94.171C-223.424 94.261 -223.844 95.851 -223.924 96.341C-224.025 96.93 -224.025 97.532 -223.924 98.121C-223.743 100.165 -223.176 102.157 -222.254 103.991C-222.026 104.505 -221.684 104.96 -221.254 105.321C-220.358 106.408 -219.266 107.317 -218.034 108.001C-217.631 108.246 -217.192 108.428 -216.734 108.541C-216.157 108.813 -215.544 109.001 -214.914 109.101C-214.026 108.821 -213.073 108.821 -212.184 109.101C-211.383 109.432 -210.491 109.471 -209.664 109.211C-208.555 108.873 -207.532 108.3 -206.664 107.531C-204.59 105.816 -203.021 103.569 -202.124 101.031C-201.767 99.2076 -201.804 97.3287 -202.234 95.521Z"
      fill="#D9174A" />
  </g>
  <path fill-rule="evenodd" clip-rule="evenodd" d="M-275 234H1609V395H-275V234Z" fill="#22C55E" />
</svg>
  